<?xml version="1.0" encoding="UTF-8"?>
<svg xmlns="http://www.w3.org/2000/svg" xmlns:xlink="http://www.w3.org/1999/xlink" viewBox="0 0 32 32" width="32px" height="32px">
<g id="surface15991312">
<path style=" stroke:none;fill-rule:nonzero;fill:rgb(92.54902%,94.117647%,94.509804%);fill-opacity:1;" d="M 16 3 C 8.820312 3 3 8.820312 3 16 C 3 23.179688 8.820312 29 16 29 C 23.179688 29 29 23.179688 29 16 C 29 8.820312 23.179688 3 16 3 Z M 16.011719 8 C 16.777344 8 17.5 8.671875 17.5 9.492188 C 17.5 10.363281 16.777344 11 16.011719 11 C 15.113281 11 14.5 10.363281 14.5 9.492188 C 14.5 8.671875 15.113281 8 16.011719 8 Z M 19.5 23.5 L 12.5 23.5 L 12.5 22 L 15 21.5 L 15 15 L 13 15 L 13 13.5 L 17 13 L 17 21.5 L 19.5 22 Z M 19.5 23.5 "/>
</g>
</svg>
