<?xml version="1.0" encoding="UTF-8"?>
<svg xmlns="http://www.w3.org/2000/svg" xmlns:xlink="http://www.w3.org/1999/xlink" viewBox="0 0 32 32" width="32px" height="32px">
<g id="surface20966232">
<path style=" stroke:none;fill-rule:nonzero;fill:rgb(92.54902%,94.117647%,94.509804%);fill-opacity:1;" d="M 29.332031 5.332031 C 28.292969 5.949219 26.207031 6.789062 24.980469 7.035156 C 24.945312 7.042969 24.914062 7.054688 24.878906 7.0625 C 23.796875 5.996094 22.3125 5.332031 20.667969 5.332031 C 17.351562 5.332031 14.667969 8.019531 14.667969 11.332031 C 14.667969 11.507812 14.652344 11.828125 14.667969 12 C 10.195312 12 6.792969 9.65625 4.351562 6.664062 C 4.089844 7.332031 3.972656 8.386719 3.972656 9.375 C 3.972656 11.242188 5.433594 13.078125 7.707031 14.214844 C 7.285156 14.324219 6.824219 14.398438 6.34375 14.398438 C 5.570312 14.398438 4.75 14.195312 4 13.578125 C 4 13.601562 4 13.621094 4 13.644531 C 4 16.257812 6.769531 18.035156 9.234375 18.527344 C 8.734375 18.824219 7.726562 18.851562 7.234375 18.851562 C 6.886719 18.851562 5.660156 18.691406 5.332031 18.632812 C 6.019531 20.773438 8.492188 21.976562 10.847656 22.015625 C 9.003906 23.460938 7.726562 24 3.953125 24 L 2.667969 24 C 5.050781 25.527344 8.085938 26.667969 11.128906 26.667969 C 21.035156 26.667969 26.667969 19.117188 26.667969 12 C 26.667969 11.882812 26.664062 11.644531 26.660156 11.402344 C 26.660156 11.378906 26.667969 11.355469 26.667969 11.332031 C 26.667969 11.296875 26.65625 11.261719 26.65625 11.226562 C 26.652344 11.042969 26.648438 10.875 26.644531 10.785156 C 27.699219 10.027344 28.609375 9.078125 29.332031 8 C 28.367188 8.429688 27.328125 8.714844 26.238281 8.847656 C 27.351562 8.179688 28.933594 6.589844 29.332031 5.332031 Z M 29.332031 5.332031 "/>
</g>
</svg>
