<?xml version="1.0" encoding="UTF-8"?>
<svg xmlns="http://www.w3.org/2000/svg" xmlns:xlink="http://www.w3.org/1999/xlink" viewBox="0 0 24 24" width="24px" height="24px">
<g id="surface20985133">
<path style=" stroke:none;fill-rule:evenodd;fill:rgb(92.54902%,94.117647%,94.509804%);fill-opacity:1;" d="M 12 3 C 7.027344 3 3 7.027344 3 12 C 3 15.976562 5.578125 19.351562 9.15625 20.539062 C 9.605469 20.621094 9.769531 20.347656 9.769531 20.105469 C 9.769531 19.894531 9.761719 19.328125 9.757812 18.578125 C 7.253906 19.121094 6.726562 17.371094 6.726562 17.371094 C 6.316406 16.332031 5.726562 16.050781 5.726562 16.050781 C 4.910156 15.496094 5.789062 15.507812 5.789062 15.507812 C 6.691406 15.570312 7.167969 16.433594 7.167969 16.433594 C 7.96875 17.808594 9.273438 17.410156 9.785156 17.183594 C 9.867188 16.601562 10.101562 16.203125 10.355469 15.980469 C 8.359375 15.753906 6.257812 14.980469 6.257812 11.53125 C 6.257812 10.546875 6.609375 9.746094 7.183594 9.113281 C 7.09375 8.890625 6.78125 7.972656 7.273438 6.734375 C 7.273438 6.734375 8.027344 6.492188 9.746094 7.65625 C 10.464844 7.457031 11.234375 7.355469 12 7.355469 C 12.765625 7.355469 13.535156 7.457031 14.253906 7.65625 C 15.972656 6.492188 16.726562 6.734375 16.726562 6.734375 C 17.21875 7.972656 16.910156 8.890625 16.816406 9.113281 C 17.394531 9.746094 17.738281 10.546875 17.738281 11.53125 C 17.738281 14.988281 15.636719 15.746094 13.632812 15.972656 C 13.953125 16.25 14.242188 16.800781 14.242188 17.636719 C 14.242188 18.839844 14.234375 19.8125 14.234375 20.105469 C 14.234375 20.347656 14.394531 20.628906 14.851562 20.539062 C 18.425781 19.347656 21 15.976562 21 12 C 21 7.027344 16.972656 3 12 3 Z M 12 3 "/>
</g>
</svg>
